<?xml version="1.0" encoding="UTF-8"?>
<svg id="Capa_2" data-name="Capa 2" xmlns="http://www.w3.org/2000/svg" viewBox="0 0 342.24 155.03">
  <defs>
    <style>
      .cls-1 {
        fill: #70c6ae;
      }

      .cls-1, .cls-2 {
        stroke-width: 0px;
      }

      .cls-2 {
        fill: #fff;
      }
    </style>
  </defs>
  <g id="Layer_1" data-name="Layer 1">
    <g>
      <path class="cls-1" d="M11.74,55.32l4.63-11.5-7.69-.07,1.29-4.63,8.3-.07,4.9-12.11-8.84-.07,1.29-4.63,9.46-.07,5.24-13.06h3.13l1.43,1.43-4.63,11.57,10.07-.14,5.17-12.86h3.13l1.43,1.43-4.56,11.43,6.74-.07.68,1.02-1.77,4.15h-7.69l-4.76,11.77,7.82-.07.75,1.02-1.91,4.15-8.71-.07-5.17,12.86h-3.13l-1.36-1.43,4.56-11.43-10-.07-5.24,12.93h-3.13l-1.43-1.43ZM23.45,38.99l10.14-.07,4.7-11.91-10-.07-4.83,12.04Z"/>
      <path class="cls-2" d="M93.11,11.7l.95,2.18c-1.02,3.2-2.72,8.23-3.61,10.68-1.56-.07-4.15-.27-5.38-.48.27-3.88.41-6.6.34-8.57-1.29-1.02-4.01-1.77-6.8-1.77s-5.24.68-6.87,1.84c-1.09,1.29-2.04,3.06-2.04,5.44,0,10,19.66,9.12,19.66,22.38,0,8.71-7.14,14.36-18.23,14.36-6.8,0-12.18-2.38-14.97-4.15l-.14-.48c.61-3.47,1.29-7.76,2.11-11.16,1.56-.07,4.56.14,5.78.27.27,3.47.54,5.92.61,8.3,1.43.95,4.22,1.77,7.69,1.77,2.79,0,5.04-.48,6.6-1.22,1.16-1.09,2.11-2.86,2.11-5.24,0-10-19.66-9.05-19.66-22.86,0-8.71,8.3-14.9,18.1-14.9,5.85,0,10.68,1.36,13.74,3.61Z"/>
      <path class="cls-2" d="M111.55,21.7l-2.99,14.76c-1.09,5.65-2.31,11.43-1.63,14.29l.95.34c3.67-5.24,9.46-14.42,14.63-22.79l1.36-7.28,6.6-.88c.54.34,1.36,1.09,1.7,1.56l-2.72,14.9c-.95,5.65-1.63,9.66-2.31,14.42,1.97-.88,4.22-1.97,5.71-2.79l1.57,2.99c-3.06,2.52-8.85,6.53-11.23,6.53-1.43,0-3.27-1.7-4.63-3.06.68-3.33,1.77-8.71,2.86-13.06.54-2.52,1.29-5.1,1.91-7.35l-.54-.2c-.48.75-3.74,6.6-4.35,7.48-1.77,2.93-7.76,12.59-10.82,16.19-5.24-.61-9.93-2.38-9.93-6.4,0-3.06,1.63-10.82,2.52-15.17l2.04-9.93-5.71-1.63.82-2.72,12.59-1.91,1.63,1.7ZM127.95,0c1.09,1.43,2.45,3.81,3.06,5.71l-1.02,2.04-18.92,8.37-1.02-.34-.88-2.72c5.51-4.22,12.52-9.12,18.78-13.06Z"/>
      <path class="cls-2" d="M154.41,4.01l1.63,1.7c-.68,3.74-5.51,26.2-6.46,30.89-.48,2.45-1.43,5.51-2.25,8.5l.54.2c1.09-2.11,2.25-4.35,2.99-5.85,1.29-2.38,2.18-4.15,3.06-5.71,3.95-7.35,7.69-13.74,11.77-13.74,2.65,0,5.17,1.57,6.67,2.99.27,1.91.61,4.29.61,7.08,0,13.47-5.99,27.69-18.17,27.69-3.47,0-7.21-1.16-10.55-2.86l-3.47,2.86-2.52-.95c1.22-7.01,4.08-22.04,5.99-31.64l2.93-14.9-5.65-1.63.88-2.72,11.97-1.91ZM148.69,49.74c2.52,1.84,5.51,2.86,8.23,3.13l.95-.2c4.49-4.83,6.87-14.36,6.87-21.77,0-1.36-.07-2.86-.27-3.74l-.95-.41c-3.06,1.56-8.17,11.43-14.83,23Z"/>
      <path class="cls-2" d="M202.17,45.59l1.7,3.06c-3.67,2.86-10.21,7.35-15.1,9.12-7.42-.2-11.16-5.92-11.16-14.02,0-13.47,9.8-23.75,18.64-23.75,5.65,0,9.25,3.88,9.25,8.5,0,8.37-10.95,12.18-19.6,14.36.14,4.01,1.22,6.53,2.79,7.96l.88.14c3.88-1.36,8.64-3.67,12.59-5.38ZM186.11,38.99c5.78-1.7,11.5-4.76,11.5-9.39,0-2.59-2.25-4.35-4.56-4.49l-.82.27c-3.06,3.13-5.44,7.89-6.12,13.61Z"/>
      <path class="cls-2" d="M217.13,57.76c-1.7,0-4.49-2.18-5.99-3.47.54-3.61,2.38-13.61,3.2-18.17l1.63-9.66-5.85-.2.27-3.4,6.46-1.56,3.2-9.25,5.1-.75,1.22.82-1.56,9.32,9.53-.34.88,1.02-1.36,4.56-9.8-.2-1.56,8.98c-.82,4.29-1.77,9.66-2.45,14.83l.61.34c3.13-1.36,7.21-3.27,10.41-4.83l1.57,2.86c-3.13,2.72-12.52,9.12-15.51,9.12Z"/>
      <path class="cls-2" d="M260.54,45.59l1.7,3.06c-3.67,2.86-10.21,7.35-15.1,9.12-7.42-.2-11.16-5.92-11.16-14.02,0-13.47,9.8-23.75,18.64-23.75,5.65,0,9.25,3.88,9.25,8.5,0,8.37-10.95,12.18-19.59,14.36.14,4.01,1.22,6.53,2.79,7.96l.88.14c3.88-1.36,8.64-3.67,12.59-5.38ZM244.48,38.99c5.78-1.7,11.5-4.76,11.5-9.39,0-2.59-2.25-4.35-4.56-4.49l-.82.27c-3.06,3.13-5.44,7.89-6.12,13.61Z"/>
      <path class="cls-2" d="M312.65,22.79l3.47-2.86,2.52.95-3.06,16.67c-.75,3.81-1.57,8.37-2.25,13.47,1.91-.88,4.08-1.97,5.72-2.79l1.56,2.99c-3.13,2.52-8.84,6.53-11.23,6.53-1.43,0-3.27-1.7-4.63-3.06l2.72-13.13c.54-2.52,1.7-6.46,2.38-8.98l-.54-.2c-.61,1.09-3.67,7.08-4.15,7.89-2.04,3.67-6.87,12.04-10.07,17.49-2.04,0-5.71-.54-8.16-1.56-1.43-2.99-2.72-7.62-2.72-12.52,0-12.86,9.05-23.68,18.57-23.68,3.74,0,7.76,1.5,9.87,2.79ZM294.55,51.23c3.27-6.06,9.25-16.4,13.27-23.13-1.97-1.56-5.04-2.99-7.69-3.33l-.95.27c-3.95,3.61-6.67,10.27-6.67,17.55,0,3.33.48,6.19,1.22,8.5l.82.14Z"/>
      <path class="cls-2" d="M330.47,57.76c-1.43,0-3.67-1.7-5.1-3.06.61-4.29,2.65-14.15,3.54-19.25l4.56-25.17-5.65-1.63.88-2.72,11.84-1.91,1.7,1.7-5.24,29.8c-.88,4.9-1.84,9.87-2.72,15.65,1.97-.88,4.49-2.04,6.12-2.93l1.57,2.99c-3.13,2.52-9.05,6.53-11.5,6.53Z"/>
    </g>
    <polygon class="cls-1" points="0 92.91 24.63 92.91 24.63 155.03 52.99 155.03 52.99 92.91 77.62 92.91 77.62 70.93 0 70.93 0 92.91"/>
    <path class="cls-1" d="M159.08,119.41c3.13-4.69,4.69-10.27,4.69-16.76s-1.56-12.11-4.69-16.88c-3.12-4.77-7.55-8.43-13.28-10.99-5.73-2.56-12.52-3.85-20.37-3.85h-40.49v84.11h28.36v-21.15h7.72l14.26,21.15h30.28l-17.65-25.87c4.71-2.41,8.43-5.66,11.16-9.76ZM132.35,95.44c1.88,1.76,2.82,4.17,2.82,7.21s-.94,5.45-2.82,7.21c-1.88,1.76-4.79,2.64-8.71,2.64h-10.33v-19.71h10.33c3.92,0,6.83.88,8.71,2.64Z"/>
    <polygon class="cls-1" points="202.34 122.59 237.9 122.59 237.9 102.17 202.34 102.17 202.34 92.31 242.83 92.31 242.83 70.93 174.46 70.93 174.46 155.03 244.39 155.03 244.39 133.65 202.34 133.65 202.34 122.59"/>
    <polygon class="cls-1" points="310.6 70.93 310.6 109.17 278.64 70.93 255.33 70.93 255.33 155.03 282.96 155.03 282.96 116.79 314.92 155.03 338.23 155.03 338.23 70.93 310.6 70.93"/>
  </g>
</svg>